<svg width="43" height="60" viewBox="0 0 43 60" fill="none" xmlns="http://www.w3.org/2000/svg">
<path d="M42.665 21.3158C42.665 31.4595 32.2707 44.0514 24.9166 54.9171C23.3111 57.2891 19.7725 57.451 18.0584 55.1562C8.88885 42.8804 0.665039 31.7343 0.665039 21.3158C0.665039 9.5434 10.0671 0 21.665 0C33.263 0 42.665 9.5434 42.665 21.3158Z" fill="#246AEA" opacity="0.5" />
<path d="M31.8147 19.5126C31.7925 19.5126 31.7747 19.5126 31.7524 19.5126C30.6967 19.5126 29.7033 19.7754 28.8302 20.2387L26.9148 17.4235L27.485 15.9668C27.4894 15.9579 27.4894 15.949 27.4939 15.9401L28.5763 15.949C28.5808 15.949 28.5852 15.949 28.5941 15.949C29.0129 15.949 29.4049 15.7887 29.7078 15.4947C30.0107 15.1962 30.1799 14.7998 30.1844 14.3766C30.1933 13.499 29.485 12.7774 28.6075 12.7685L25.427 12.7373C25.4225 12.7373 25.4181 12.7373 25.4092 12.7373C24.9904 12.7373 24.5984 12.8977 24.2955 13.1917C23.9926 13.4901 23.8233 13.8866 23.8189 14.3098C23.8144 14.7329 23.9748 15.1338 24.2733 15.4367C24.5717 15.7397 24.9682 15.9089 25.3913 15.9134L26.064 15.9178L25.7254 16.7865L14.901 16.6929C14.9722 15.2407 14.9856 14.136 14.9856 14.1093C14.9856 13.4768 15.1014 13.0402 15.333 12.8086C15.5112 12.6349 15.774 12.5502 16.1527 12.5502H17.9478C18.3176 12.5502 18.616 12.2518 18.616 11.882C18.616 11.5123 18.3131 11.2139 17.9478 11.2139H16.1527C15.4132 11.2139 14.8208 11.4321 14.3931 11.8642C13.8942 12.3631 13.6537 13.1026 13.6537 14.1138C13.6537 14.9557 13.5735 17.4279 13.3508 19.5572C12.8073 19.3968 12.2327 19.3033 11.6403 19.2944C11.618 19.2944 11.6002 19.2944 11.5779 19.2944C8.14791 19.2944 5.34157 22.0651 5.31038 25.504C5.29257 27.2412 6.00529 28.9206 7.26592 30.1144C8.22364 31.0231 9.41745 31.5977 10.7226 31.7759C10.9899 31.8115 11.2572 31.8294 11.5155 31.8338C11.5333 31.8338 11.5512 31.8338 11.5734 31.8338C11.814 31.8338 12.0634 31.8205 12.3173 31.7893C13.7873 31.6155 15.1549 30.9206 16.166 29.8382C17.2351 28.6889 17.832 27.1922 17.8498 25.6242C17.8721 23.2544 16.5714 21.1786 14.6381 20.0917C14.6782 19.7576 14.7094 19.4146 14.7406 19.0716C17.0748 20.3189 18.1082 21.9181 19.0214 23.3391C19.9212 24.7333 20.7765 26.0519 22.6028 26.5819C22.6073 26.5819 22.6117 26.5864 22.6162 26.5864C22.6206 26.5864 22.6251 26.5864 22.6295 26.5864C22.6474 26.5909 22.6652 26.5998 22.683 26.6042C22.7364 26.6176 22.7899 26.622 22.8434 26.6265C22.8478 26.6265 22.8567 26.6309 22.8612 26.6309C22.8656 26.6309 22.8701 26.6309 22.8701 26.6309H22.8745L25.5383 26.5597C25.9214 29.6244 28.5184 32.0165 31.69 32.0476C31.7123 32.0476 31.7301 32.0476 31.7524 32.0476C35.1824 32.0476 37.9887 29.2769 38.0199 25.838C38.0555 22.3902 35.2715 19.5483 31.8147 19.5126ZM25.0662 14.6706C24.9771 14.577 24.9281 14.4612 24.9281 14.332C24.9281 14.2073 24.9815 14.087 25.0706 13.9979C25.1597 13.9088 25.28 13.8598 25.4047 13.8598H25.4092L28.5897 13.891C28.8525 13.8955 29.0663 14.1093 29.0619 14.3721C29.0574 14.6349 28.8436 14.8443 28.5852 14.8443H28.5808L25.4002 14.8131C25.2755 14.8131 25.1552 14.7597 25.0662 14.6706ZM16.509 25.6153C16.4957 26.8492 16.0279 28.0252 15.186 28.9295C14.3887 29.7847 13.3107 30.3326 12.1614 30.4663C11.9476 30.4886 11.7338 30.5019 11.5289 30.4975C11.324 30.4975 11.1102 30.4796 10.9008 30.4529C9.87626 30.3104 8.93636 29.8605 8.18355 29.1433C7.19019 28.2034 6.62892 26.8804 6.64228 25.5173C6.65565 24.1988 7.18128 22.9649 8.12118 22.0428C9.05218 21.1341 10.2727 20.6307 11.5734 20.6307C11.5913 20.6307 11.6091 20.6307 11.6224 20.6307C12.1659 20.6352 12.6871 20.7332 13.1771 20.9024C13.0657 21.6152 12.9365 22.2121 12.7806 22.5862C11.9832 24.4839 11.2794 24.9828 11.2393 25.014C10.9275 25.1966 10.8206 25.593 10.9943 25.9093C11.1146 26.132 11.3463 26.2568 11.5823 26.2568C11.6892 26.2568 11.8006 26.23 11.9031 26.1721C12.0812 26.0741 13.0211 25.4683 14.0145 23.103C14.1793 22.7154 14.313 22.1675 14.4288 21.5394C15.6983 22.4482 16.5269 23.936 16.509 25.6153ZM27.721 20.9915C26.4916 22.0294 25.6631 23.5306 25.5116 25.2278L23.8456 25.2723L26.3223 18.938L27.721 20.9915ZM28.4783 22.1007L30.514 25.0897L26.8569 25.1877C26.9905 24.0785 27.4894 23.054 28.3001 22.2566C28.358 22.2032 28.4204 22.1542 28.4783 22.1007ZM20.1439 22.6174C19.2218 21.1831 18.0859 19.428 15.627 18.0382L25.1998 18.1317L22.4692 25.1209C21.458 24.6531 20.8878 23.7711 20.1439 22.6174ZM31.7524 30.7157C31.7346 30.7157 31.7212 30.7157 31.7034 30.7157C29.2534 30.6935 27.24 28.876 26.8791 26.524L31.7702 26.3904C32.0152 26.3859 32.2335 26.2434 32.3448 26.0251C32.4562 25.8069 32.4384 25.5485 32.3047 25.3436L29.583 21.3479C30.2512 21.0227 30.9862 20.8445 31.7479 20.8445C31.7657 20.8445 31.7836 20.8445 31.7969 20.8445C34.5186 20.8713 36.7103 23.1074 36.6791 25.8247C36.6613 28.5375 34.4518 30.7157 31.7524 30.7157Z" fill="white"/>
<path d="M10.1746 22.5417C9.07435 23.0406 8.35272 24.1453 8.33936 25.3525C8.33936 25.446 8.34381 25.5396 8.34826 25.6286C8.36163 25.8024 8.50863 25.936 8.68235 25.936C8.69126 25.936 8.70017 25.936 8.70908 25.936C8.89172 25.9226 9.02981 25.7578 9.01644 25.5752C9.01199 25.5039 9.00753 25.4282 9.00753 25.3569C9.01644 24.4081 9.58217 23.5395 10.4463 23.1475C10.6156 23.0718 10.6869 22.8713 10.6112 22.7065C10.5399 22.5417 10.3439 22.4659 10.1746 22.5417Z" fill="white"/>
<path d="M34.0286 27.5755C33.9885 27.6335 33.944 27.6914 33.895 27.7493C33.2892 28.4798 32.3047 28.7961 31.3827 28.5511C31.2045 28.5065 31.0218 28.609 30.9728 28.7872C30.9238 28.9654 31.0307 29.148 31.2089 29.197C31.4717 29.2638 31.7346 29.2994 32.0018 29.2994C32.915 29.2994 33.8059 28.8941 34.4073 28.1725C34.4652 28.1012 34.5231 28.0255 34.5765 27.9497C34.6834 27.7983 34.6434 27.5889 34.4919 27.4865C34.3405 27.384 34.1311 27.4241 34.0286 27.5755Z" fill="white"/>
</svg>
