<svg width="42" height="60" viewBox="0 0 42 60" fill="none" xmlns="http://www.w3.org/2000/svg">
<path d="M42 21.3158C42 31.4595 31.6057 44.0514 24.2515 54.9171C22.6461 57.2891 19.1075 57.451 17.3934 55.1562C8.22381 42.8804 0 31.7343 0 21.3158C0 9.5434 9.40202 0 21 0C32.598 0 42 9.5434 42 21.3158Z" fill="#4FB999"/>
<path d="M34.0197 12.6981C33.9011 12.4916 33.6815 12.3643 33.4443 12.3643L17.328 12.4126C17.0996 12.4126 16.8844 12.5356 16.7658 12.7288L12.9706 18.9794C12.5753 19.0322 11.8637 19.1376 10.9896 19.3265C10.6689 19.3967 10.3438 19.4626 10.0232 19.5285C8.85477 19.7701 7.74785 19.9941 6.84737 20.3499C5.70531 20.798 4.95858 21.817 4.79605 23.1436C4.66867 24.2022 4.51054 26.2799 4.50175 26.3677C4.48857 26.5522 4.55007 26.7323 4.67745 26.8685C4.80044 27.0002 4.97615 27.0793 5.16063 27.0793L8.52533 27.0705C8.68785 27.7558 9.03047 28.3839 9.5444 28.8934C10.2648 29.6094 11.218 30.0004 12.2283 30.0004C12.2326 30.0004 12.237 30.0004 12.237 30.0004C13.2561 29.996 14.2093 29.6006 14.9253 28.8759C15.4348 28.3619 15.7774 27.7338 15.9312 27.0442L26.4909 27.0134C26.6534 27.6987 26.996 28.3268 27.5099 28.8319C28.2303 29.5479 29.1835 29.9389 30.1938 29.9389C30.1982 29.9389 30.2026 29.9389 30.2026 29.9389C31.2216 29.9345 32.1748 29.5347 32.8908 28.8144C33.4004 28.3004 33.743 27.6723 33.8967 26.9827L36.8309 26.9783C37.1823 26.9783 37.4722 26.7015 37.4898 26.3501C37.4942 26.2096 37.6348 22.8537 36.7167 19.3133C35.869 16.0013 34.0944 12.8343 34.0197 12.6981ZM35.2233 18.8345L26.0692 18.8784L26.056 13.704L33.0533 13.682C33.475 14.4815 34.5292 16.5811 35.2233 18.8345ZM17.7014 13.7259L24.7382 13.704L24.7514 18.8784L14.5431 18.9267L17.7014 13.7259ZM13.9984 27.949C13.5284 28.419 12.9047 28.6826 12.2414 28.6826C12.237 28.6826 12.237 28.6826 12.2326 28.6826C11.5694 28.6826 10.9456 28.4234 10.4756 27.9578C10.0056 27.4878 9.74207 26.8641 9.74207 26.2008C9.74207 25.5375 9.99683 24.9094 10.4668 24.4394C10.9368 23.9694 11.5606 23.7058 12.2239 23.7058C12.2283 23.7058 12.2283 23.7058 12.2326 23.7058C13.6031 23.7058 14.7188 24.8171 14.7232 26.192C14.7232 26.8509 14.4685 27.4746 13.9984 27.949ZM30.2114 28.6255C30.207 28.6255 30.207 28.6255 30.2026 28.6255C29.5393 28.6255 28.9156 28.3663 28.4456 27.9007C27.9755 27.4307 27.712 26.807 27.712 26.1437C27.712 25.4804 27.9668 24.8523 28.4368 24.3823C28.9068 23.9123 29.5305 23.6487 30.1938 23.6487C30.1982 23.6487 30.1982 23.6487 30.2026 23.6487C31.5731 23.6487 32.6888 24.76 32.6932 26.1349C32.6932 26.7982 32.4384 27.4263 31.9684 27.8963C31.5028 28.3663 30.8746 28.6255 30.2114 28.6255ZM33.9802 25.6737C33.7518 23.7893 32.1441 22.3266 30.2026 22.3266C30.1982 22.3266 30.1938 22.3266 30.1938 22.3266C29.1747 22.331 28.2215 22.7263 27.5055 23.4511C26.895 24.066 26.5216 24.8523 26.425 25.7L16.0102 25.7264C15.7818 23.8464 14.1742 22.3837 12.2326 22.3837C12.2283 22.3837 12.2239 22.3837 12.2239 22.3837C11.2048 22.3881 10.2516 22.7878 9.53562 23.5082C8.92505 24.1231 8.55168 24.905 8.45505 25.7528L5.87662 25.7615C5.93372 25.0456 6.03036 23.9606 6.10942 23.3061C6.21045 22.4627 6.64532 21.8478 7.33495 21.5754C8.13 21.2636 9.17982 21.0483 10.2911 20.8199C10.6162 20.754 10.9456 20.6881 11.2707 20.6135C12.4171 20.3675 13.2781 20.2709 13.4098 20.2533L35.5791 20.1479C36.1106 22.4452 36.194 24.6327 36.1984 25.6693L33.9802 25.6737Z" fill="white"/>
<path d="M12.2327 24.6592C12.2283 24.6592 12.2283 24.6592 12.2327 24.6592C11.8198 24.6592 11.4333 24.8217 11.1477 25.1116C10.8578 25.4015 10.6997 25.7881 10.6997 26.1966C10.6997 26.6051 10.8622 26.9916 11.1521 27.2815C11.442 27.567 11.8242 27.7252 12.2327 27.7252H12.2371C12.6456 27.7252 13.0322 27.5627 13.3221 27.2727C13.612 26.9828 13.7701 26.5963 13.7701 26.1878C13.7613 25.3444 13.0761 24.6592 12.2327 24.6592ZM12.2327 27.0663C11.9955 27.0663 11.7803 26.9741 11.6134 26.8115C11.4464 26.649 11.3542 26.4294 11.3542 26.1922C11.3542 25.709 11.7451 25.3181 12.2283 25.3137C12.7115 25.3137 13.1024 25.7046 13.1024 26.1878C13.1068 26.671 12.7159 27.0619 12.2327 27.0663Z" fill="white"/>
<path d="M30.2024 24.6021H30.198C29.7895 24.6021 29.403 24.7646 29.1131 25.0545C28.8232 25.3444 28.665 25.7309 28.665 26.1394C28.6694 26.9828 29.3547 27.6681 30.198 27.6681H30.2024C30.6109 27.6681 30.9975 27.5055 31.2874 27.2156C31.5773 26.9257 31.7354 26.5392 31.7354 26.1307C31.7354 25.7222 31.5729 25.3356 31.283 25.0457C30.9975 24.7602 30.6109 24.6021 30.2024 24.6021ZM30.2068 27.0092C29.7236 27.0092 29.3327 26.6182 29.3283 26.1351C29.3283 25.6519 29.7193 25.2609 30.2024 25.2565C30.2024 25.2565 30.2024 25.2565 30.2068 25.2565C30.4396 25.2565 30.6593 25.3488 30.8218 25.5113C30.9887 25.6738 31.0809 25.8935 31.0809 26.1307C31.0809 26.6182 30.69 27.0092 30.2068 27.0092Z" fill="white"/>
</svg>
