<svg width="42" height="60" viewBox="0 0 42 60" fill="none" xmlns="http://www.w3.org/2000/svg">
<path d="M42 21.3158C42 31.4595 31.6057 44.0514 24.2515 54.9171C22.6461 57.2891 19.1075 57.451 17.3934 55.1562C8.22381 42.8804 0 31.7343 0 21.3158C0 9.5434 9.40202 0 21 0C32.598 0 42 9.5434 42 21.3158Z" fill="#F9CA51"/>
<g clip-path="url(#clip0)">
<path d="M36.4945 18.0067C36.4945 17.9599 36.4787 17.9183 36.4682 17.8716C36.4577 17.8352 36.4524 17.7936 36.4366 17.7624C36.4208 17.7261 36.3944 17.7001 36.3734 17.6689C36.347 17.6325 36.3207 17.5909 36.2891 17.5598C36.2838 17.5546 36.2785 17.5442 36.2733 17.539L32.2168 14.1559C32.0851 14.052 31.9375 14 31.7795 14H11.9553C11.95 14 11.9447 14.0052 11.9342 14.0052C11.8604 14.0052 11.7814 14.0208 11.7129 14.0468C11.7077 14.0468 11.7077 14.052 11.7024 14.052C11.6919 14.0572 11.6813 14.0676 11.6708 14.0728C11.6128 14.0987 11.5602 14.1351 11.5127 14.1767C11.4969 14.1923 11.4811 14.2079 11.4653 14.2287C11.4284 14.2702 11.3968 14.317 11.3758 14.3638C11.3652 14.3846 11.3547 14.4053 11.3442 14.4261C11.3125 14.4937 11.2967 14.5716 11.2967 14.6496V24.0505C11.2967 24.2168 11.36 24.3727 11.4759 24.4922L11.9079 24.9495H7.83027C7.39301 24.9495 7.04004 25.2977 7.04004 25.729C7.04004 26.1604 7.39301 26.5085 7.83027 26.5085H13.3777L14.6737 27.8805C14.8054 28.0156 14.9792 28.0883 15.1531 28.0883C15.1847 28.0883 15.211 28.078 15.2426 28.0728C15.269 28.078 15.29 28.0883 15.3111 28.0883H18.4615C18.7987 31.9599 22.0913 35.0104 26.1004 35.0104C30.1095 35.0104 33.4074 31.9599 33.7393 28.0883H35.836C36.1995 28.0883 36.4945 27.7973 36.4945 27.4388V18.0327C36.4998 18.0223 36.4945 18.0171 36.4945 18.0067ZM34.0396 17.3831H15.4428L13.4672 15.2992H31.5372L34.0396 17.3831ZM13.8307 25.0794L12.6138 23.7958V16.297L14.6579 18.4588V25.9525L14.0678 25.3289C14.0046 25.2301 13.9256 25.1418 13.8307 25.0794ZM27.3226 26.7788L29.6353 24.4974C29.7881 24.3467 29.7881 24.0973 29.6353 23.9465C29.4826 23.7958 29.2297 23.7958 29.0769 23.9465L26.5008 26.4929V22.8968C26.5008 22.6837 26.3216 22.5071 26.1056 22.5071C25.8897 22.5071 25.7105 22.6837 25.7105 22.8968V26.4929L23.1344 23.9465C22.9816 23.7958 22.7287 23.7958 22.576 23.9465C22.4232 24.0973 22.4232 24.3467 22.576 24.4974L24.8887 26.7788H20.0525C20.3844 23.7699 22.9711 21.4209 26.1056 21.4209C29.2402 21.4209 31.8322 23.7699 32.1588 26.7788H27.3226ZM26.1056 33.441C22.9658 33.441 20.3791 31.0869 20.0472 28.078H24.8887L22.5707 30.3645C22.4179 30.5152 22.4179 30.7647 22.5707 30.9154C22.6497 30.9933 22.7498 31.0297 22.8499 31.0297C22.95 31.0297 23.0501 30.9933 23.1291 30.9154L25.7053 28.3742V31.9703C25.7053 32.1834 25.8844 32.3601 26.1004 32.3601C26.3164 32.3601 26.4955 32.1834 26.4955 31.9703V28.3742L29.0716 30.9154C29.1507 30.9933 29.2508 31.0297 29.3509 31.0297C29.451 31.0297 29.5511 30.9933 29.6301 30.9154C29.7829 30.7647 29.7829 30.5152 29.6301 30.3645L27.3121 28.078H32.1535C31.8322 31.0921 29.2402 33.441 26.1056 33.441ZM35.1828 26.7788H33.7445C33.4074 22.9072 30.1147 19.8619 26.1056 19.8619C22.0966 19.8619 18.8039 22.9124 18.4668 26.7788H15.9749V18.6823H35.1828V26.7788Z" fill="white"/>
<path d="M5.22797 24.9443H4.29023C3.85297 24.9443 3.5 25.2925 3.5 25.7238C3.5 26.1552 3.85297 26.5034 4.29023 26.5034H5.22797C5.66523 26.5034 6.0182 26.1552 6.0182 25.7238C6.0182 25.2925 5.66523 24.9443 5.22797 24.9443Z" fill="white"/>
</g>
<defs>
<clipPath id="clip0">
<rect x="3.5" y="14" width="33" height="21" fill="white"/>
</clipPath>
</defs>
</svg>
